<svg xmlns="http://www.w3.org/2000/svg" xmlns:xlink="http://www.w3.org/1999/xlink" preserveAspectRatio="xMidYMid" width="33" height="33" viewBox="0 0 33 33">
  <defs>
    <style>
      .cls-1 {
        fill: #fff;
        fill-rule: evenodd;
      }
    </style>
  </defs>
  <path d="M32.287,14.949 C32.937,14.288 33.166,13.318 32.886,12.417 C32.605,11.516 31.873,10.873 30.974,10.736 L22.980,9.525 C22.640,9.473 22.346,9.250 22.194,8.928 L18.620,1.373 C18.219,0.525 17.404,-0.003 16.497,-0.003 C15.590,-0.003 14.775,0.525 14.374,1.373 L10.800,8.929 C10.648,9.251 10.353,9.474 10.012,9.525 L2.019,10.737 C1.120,10.873 0.388,11.517 0.107,12.418 C-0.173,13.319 0.056,14.289 0.706,14.949 L6.489,20.830 C6.736,21.081 6.849,21.442 6.791,21.795 L5.427,30.099 C5.306,30.830 5.490,31.541 5.943,32.101 C6.648,32.975 7.878,33.241 8.862,32.702 L16.010,28.781 C16.309,28.618 16.685,28.619 16.983,28.781 L24.133,32.702 C24.480,32.893 24.851,32.989 25.234,32.989 C25.933,32.989 26.595,32.665 27.051,32.101 C27.505,31.541 27.688,30.828 27.567,30.099 L26.202,21.795 C26.144,21.442 26.257,21.081 26.503,20.830 L32.287,14.949 Z" class="cls-1"/>
</svg>
