<svg xmlns="http://www.w3.org/2000/svg" xmlns:xlink="http://www.w3.org/1999/xlink" preserveAspectRatio="xMidYMid" width="40" height="35" viewBox="0 0 40 35">
  <defs>
    <style>
      .cls-1 {
        fill: #fff;
        fill-rule: evenodd;
      }
    </style>
  </defs>
  <path d="M35.900,8.495 C38.461,10.690 40.000,13.423 40.000,16.396 C40.000,20.909 36.493,24.888 31.160,27.236 C31.138,27.270 26.250,34.985 15.761,34.985 C18.428,33.603 20.173,31.029 20.096,29.455 C20.063,29.455 20.032,29.457 20.000,29.457 C8.952,29.457 0.000,23.606 0.000,16.396 C0.000,9.180 8.952,3.334 20.000,3.334 C22.133,3.334 24.182,3.556 26.107,3.959 L27.940,0.846 C29.048,-1.024 32.434,0.622 33.839,1.417 C35.242,2.211 38.391,4.260 37.292,6.133 L35.900,8.495 ZM9.036,16.544 C8.031,16.544 7.217,17.342 7.217,18.326 C7.217,19.310 8.032,20.108 9.036,20.108 C10.040,20.108 10.855,19.310 10.855,18.326 C10.855,17.342 10.041,16.544 9.036,16.544 ZM14.005,16.544 C13.000,16.544 12.187,17.342 12.187,18.326 C12.187,19.310 13.001,20.108 14.005,20.108 C15.010,20.108 15.824,19.310 15.824,18.326 C15.824,17.342 15.010,16.544 14.005,16.544 ZM18.976,16.544 C17.971,16.544 17.158,17.342 17.158,18.326 C17.158,19.310 17.972,20.108 18.976,20.108 C19.980,20.108 20.794,19.310 20.794,18.326 C20.794,17.342 19.981,16.544 18.976,16.544 ZM33.172,2.549 C31.228,1.449 29.401,0.983 29.094,1.501 L23.818,10.455 L23.846,14.774 L23.872,18.328 L27.026,16.572 L30.859,14.438 L36.135,5.484 C36.441,4.964 35.116,3.649 33.172,2.549 ZM24.518,15.152 L24.487,10.833 L30.190,14.057 L26.357,16.193 L24.518,15.152 Z" class="cls-1"/>
</svg>
