<svg xmlns="http://www.w3.org/2000/svg" xmlns:xlink="http://www.w3.org/1999/xlink" preserveAspectRatio="xMidYMid" width="45" height="45" viewBox="0 0 45 45">
  <defs>
    <style>
      .cls-1 {
        fill: #fff;
        fill-rule: evenodd;
      }
    </style>
  </defs>
  <path d="M44.250,39.750 L42.682,39.750 C42.726,39.997 42.748,40.248 42.750,40.500 L42.750,44.250 C42.750,44.250 42.750,44.250 42.750,44.251 C42.749,44.665 42.414,45.000 42.000,45.000 L3.000,45.000 C3.000,45.000 3.000,45.000 2.999,45.000 C2.585,44.999 2.250,44.664 2.250,44.250 L2.250,40.500 C2.252,40.248 2.275,39.997 2.318,39.750 L0.750,39.750 C0.750,39.750 0.750,39.750 0.749,39.750 C0.335,39.750 0.000,39.414 0.000,39.000 L0.000,12.000 C0.000,12.000 0.000,12.000 0.000,11.999 C0.001,11.585 0.336,11.250 0.750,11.250 L12.000,11.250 L12.000,0.750 C12.000,0.750 12.000,0.750 12.000,0.749 C12.000,0.335 12.336,0.000 12.750,0.000 L32.250,0.000 C32.250,0.000 32.250,0.000 32.251,0.000 C32.665,0.001 33.000,0.336 33.000,0.750 L33.000,11.250 L44.250,11.250 C44.250,11.250 44.250,11.250 44.251,11.250 C44.665,11.250 45.000,11.586 45.000,12.000 L45.000,39.000 C45.000,39.000 45.000,39.000 45.000,39.001 C44.999,39.415 44.664,39.750 44.250,39.750 ZM35.250,43.500 L41.250,43.500 L41.250,40.500 C41.250,38.843 39.907,37.500 38.250,37.500 C36.593,37.500 35.250,38.843 35.250,40.500 L35.250,43.500 ZM39.750,34.500 C39.750,33.671 39.078,33.000 38.250,33.000 C37.421,33.000 36.750,33.671 36.750,34.500 C36.751,35.328 37.422,35.999 38.250,36.000 C39.078,36.000 39.750,35.328 39.750,34.500 ZM18.750,43.500 L26.250,43.500 L26.250,38.250 C26.250,36.179 24.571,34.500 22.500,34.500 C20.429,34.500 18.750,36.179 18.750,38.250 L18.750,43.500 ZM24.750,30.750 C24.750,29.507 23.743,28.500 22.500,28.500 C21.257,28.500 20.250,29.507 20.250,30.750 C20.251,31.992 21.258,32.999 22.500,33.000 C23.743,33.000 24.750,31.993 24.750,30.750 ZM3.750,43.500 L9.750,43.500 L9.750,40.500 C9.750,38.843 8.407,37.500 6.750,37.500 C5.093,37.500 3.750,38.843 3.750,40.500 L3.750,43.500 ZM8.250,34.500 C8.250,33.671 7.579,33.000 6.750,33.000 C5.922,33.000 5.250,33.671 5.250,34.500 C5.251,35.328 5.922,35.999 6.750,36.000 C7.579,36.000 8.250,35.328 8.250,34.500 ZM12.000,30.286 L12.000,12.750 L1.500,12.750 L1.500,38.250 L2.859,38.250 C3.269,37.541 3.864,36.957 4.580,36.560 C3.474,35.401 3.474,33.577 4.580,32.417 C5.724,31.219 7.623,31.175 8.822,32.319 C10.020,33.463 10.064,35.362 8.920,36.560 C9.264,36.751 9.581,36.986 9.864,37.258 C10.149,36.005 10.955,34.932 12.080,34.310 C11.005,33.196 10.970,31.442 12.000,30.286 ZM11.250,38.250 L11.250,43.500 L17.250,43.500 L17.250,38.250 C17.250,36.593 15.907,35.250 14.250,35.250 C12.593,35.250 11.250,36.593 11.250,38.250 ZM12.750,32.250 C12.750,33.078 13.422,33.750 14.250,33.750 C15.079,33.750 15.750,33.078 15.750,32.250 C15.750,31.421 15.079,30.750 14.250,30.750 C13.422,30.751 12.751,31.422 12.750,32.250 ZM31.500,1.500 L13.500,1.500 L13.500,29.356 C14.521,29.075 15.615,29.358 16.372,30.098 C17.549,31.248 17.570,33.134 16.420,34.310 C17.021,34.643 17.538,35.109 17.932,35.671 C18.435,34.786 19.182,34.064 20.084,33.594 C19.921,33.456 19.769,33.305 19.632,33.141 C18.298,31.557 18.500,29.192 20.084,27.857 C21.668,26.523 24.034,26.726 25.368,28.310 C26.702,29.894 26.500,32.260 24.916,33.594 C25.818,34.064 26.565,34.786 27.068,35.671 C27.462,35.109 27.979,34.643 28.580,34.310 C28.045,33.751 27.748,33.007 27.750,32.234 C27.754,30.582 29.097,29.246 30.750,29.250 C31.003,29.253 31.255,29.289 31.500,29.356 L31.500,1.500 ZM30.750,30.750 C29.921,30.750 29.250,31.421 29.250,32.250 C29.250,33.078 29.921,33.750 30.750,33.750 C31.578,33.750 32.250,33.078 32.250,32.250 C32.249,31.422 31.578,30.751 30.750,30.750 ZM30.750,35.250 C29.093,35.250 27.750,36.593 27.750,38.250 L27.750,43.500 L33.750,43.500 L33.750,40.500 L33.750,38.250 C33.750,36.593 32.407,35.250 30.750,35.250 ZM43.500,12.750 L33.000,12.750 L33.000,30.286 C34.030,31.442 33.995,33.196 32.920,34.310 C34.045,34.932 34.851,36.005 35.136,37.258 C35.419,36.986 35.736,36.751 36.080,36.560 C34.973,35.401 34.973,33.577 36.080,32.417 C37.224,31.219 39.123,31.175 40.321,32.319 C41.520,33.463 41.564,35.362 40.420,36.560 C41.136,36.957 41.731,37.541 42.141,38.250 L43.500,38.250 L43.500,38.250 L43.500,12.750 ZM39.750,17.250 L41.250,17.250 L41.250,29.250 L39.750,29.250 L39.750,17.250 ZM35.250,17.250 L36.750,17.250 L36.750,29.250 L35.250,29.250 L35.250,17.250 ZM27.750,24.000 L29.250,24.000 L29.250,25.500 L27.750,25.500 L27.750,24.000 ZM27.750,21.000 L29.250,21.000 L29.250,22.500 L27.750,22.500 L27.750,21.000 ZM27.750,18.000 L29.250,18.000 L29.250,19.500 L27.750,19.500 L27.750,18.000 ZM27.750,15.000 L29.250,15.000 L29.250,16.500 L27.750,16.500 L27.750,15.000 ZM27.000,10.500 L18.000,10.500 C18.000,10.500 17.999,10.500 17.999,10.500 C17.585,10.500 17.250,10.164 17.250,9.750 L17.250,3.750 C17.250,3.750 17.250,3.750 17.250,3.749 C17.250,3.335 17.586,3.000 18.000,3.000 L27.000,3.000 C27.000,3.000 27.001,3.000 27.001,3.000 C27.415,3.001 27.750,3.336 27.750,3.750 L27.750,9.750 C27.750,9.750 27.750,9.751 27.750,9.751 C27.750,10.165 27.414,10.500 27.000,10.500 ZM26.250,4.500 L18.750,4.500 L18.750,9.000 L26.250,9.000 L26.250,4.500 ZM17.250,16.500 L15.750,16.500 L15.750,15.000 L17.250,15.000 L17.250,16.500 ZM17.250,19.500 L15.750,19.500 L15.750,18.000 L17.250,18.000 L17.250,19.500 ZM17.250,22.500 L15.750,22.500 L15.750,21.000 L17.250,21.000 L17.250,22.500 ZM17.250,25.500 L15.750,25.500 L15.750,24.000 L17.250,24.000 L17.250,25.500 ZM20.250,13.500 L18.750,13.500 L18.750,12.000 L20.250,12.000 L20.250,13.500 ZM20.250,16.500 L18.750,16.500 L18.750,15.000 L20.250,15.000 L20.250,16.500 ZM20.250,19.500 L18.750,19.500 L18.750,18.000 L20.250,18.000 L20.250,19.500 ZM20.250,22.500 L18.750,22.500 L18.750,21.000 L20.250,21.000 L20.250,22.500 ZM20.250,25.500 L18.750,25.500 L18.750,24.000 L20.250,24.000 L20.250,25.500 ZM23.250,13.500 L21.750,13.500 L21.750,12.000 L23.250,12.000 L23.250,13.500 ZM23.250,16.500 L21.750,16.500 L21.750,15.000 L23.250,15.000 L23.250,16.500 ZM23.250,19.500 L21.750,19.500 L21.750,18.000 L23.250,18.000 L23.250,19.500 ZM23.250,22.500 L21.750,22.500 L21.750,21.000 L23.250,21.000 L23.250,22.500 ZM23.250,25.500 L21.750,25.500 L21.750,24.000 L23.250,24.000 L23.250,25.500 ZM26.250,13.500 L24.750,13.500 L24.750,12.000 L26.250,12.000 L26.250,13.500 ZM26.250,16.500 L24.750,16.500 L24.750,15.000 L26.250,15.000 L26.250,16.500 ZM26.250,19.500 L24.750,19.500 L24.750,18.000 L26.250,18.000 L26.250,19.500 ZM26.250,22.500 L24.750,22.500 L24.750,21.000 L26.250,21.000 L26.250,22.500 ZM26.250,25.500 L24.750,25.500 L24.750,24.000 L26.250,24.000 L26.250,25.500 ZM8.250,17.250 L9.750,17.250 L9.750,29.250 L8.250,29.250 L8.250,17.250 ZM3.750,17.250 L5.250,17.250 L5.250,29.250 L3.750,29.250 L3.750,17.250 Z" class="cls-1"/>
</svg>
