<svg xmlns="http://www.w3.org/2000/svg" xmlns:xlink="http://www.w3.org/1999/xlink" preserveAspectRatio="xMidYMid" width="41.938" height="31.938" viewBox="0 0 41.938 31.938">
  <defs>
    <style>
      .cls-1 {
        fill: #fff;
        fill-rule: evenodd;
      }
    </style>
  </defs>
  <path d="M40.841,30.877 C40.107,31.589 39.226,31.944 38.196,31.944 L3.742,31.944 C2.712,31.944 1.830,31.589 1.097,30.877 C0.363,30.166 -0.003,29.312 -0.003,28.313 L-0.003,3.627 C-0.003,2.628 0.363,1.774 1.097,1.062 C1.830,0.351 2.712,-0.004 3.742,-0.004 L38.196,-0.004 C39.226,-0.004 40.107,0.351 40.841,1.062 C41.574,1.773 41.941,2.628 41.941,3.627 L41.941,28.313 C41.941,29.312 41.574,30.166 40.841,30.877 ZM38.945,9.435 C38.945,9.238 38.870,9.068 38.722,8.924 C38.574,8.781 38.399,8.709 38.196,8.709 L3.742,8.709 C3.539,8.709 3.363,8.781 3.215,8.924 C3.067,9.068 2.993,9.238 2.993,9.435 L2.993,28.313 C2.993,28.510 3.067,28.680 3.215,28.823 C3.363,28.967 3.539,29.039 3.742,29.039 L38.196,29.039 C38.399,29.039 38.574,28.967 38.722,28.823 C38.870,28.680 38.945,28.510 38.945,28.313 L38.945,9.435 ZM35.200,26.134 L12.730,26.134 C12.527,26.134 12.351,26.063 12.203,25.919 C12.055,25.775 11.981,25.606 11.981,25.409 L11.981,23.956 C11.981,23.760 12.055,23.590 12.203,23.446 C12.351,23.302 12.527,23.231 12.730,23.231 L35.200,23.231 C35.403,23.231 35.578,23.302 35.727,23.446 C35.875,23.590 35.949,23.760 35.949,23.956 L35.949,25.409 C35.949,25.606 35.875,25.775 35.727,25.919 C35.578,26.063 35.403,26.134 35.200,26.134 ZM35.200,20.326 L12.730,20.326 C12.527,20.326 12.351,20.254 12.203,20.111 C12.055,19.967 11.981,19.797 11.981,19.600 L11.981,18.148 C11.981,17.951 12.055,17.781 12.203,17.637 C12.351,17.494 12.527,17.422 12.730,17.422 L35.200,17.422 C35.403,17.422 35.578,17.494 35.727,17.637 C35.875,17.781 35.949,17.951 35.949,18.148 L35.949,19.600 C35.949,19.797 35.875,19.967 35.727,20.111 C35.578,20.254 35.403,20.326 35.200,20.326 ZM35.200,14.518 L12.730,14.518 C12.527,14.518 12.351,14.445 12.203,14.302 C12.055,14.159 11.981,13.988 11.981,13.792 L11.981,12.339 C11.981,12.142 12.055,11.973 12.203,11.829 C12.351,11.685 12.527,11.613 12.730,11.613 L35.200,11.613 C35.403,11.613 35.578,11.685 35.727,11.829 C35.875,11.972 35.949,12.142 35.949,12.339 L35.949,13.792 C35.949,13.988 35.875,14.158 35.727,14.302 C35.579,14.446 35.403,14.518 35.200,14.518 ZM8.236,26.134 L6.738,26.134 C6.535,26.134 6.360,26.063 6.211,25.919 C6.063,25.775 5.989,25.606 5.989,25.409 L5.989,23.956 C5.989,23.760 6.063,23.590 6.211,23.446 C6.360,23.302 6.535,23.231 6.738,23.231 L8.236,23.231 C8.439,23.231 8.614,23.303 8.763,23.446 C8.911,23.590 8.985,23.760 8.985,23.956 L8.985,25.409 C8.985,25.606 8.911,25.775 8.763,25.919 C8.614,26.063 8.439,26.134 8.236,26.134 ZM8.236,20.326 L6.738,20.326 C6.535,20.326 6.360,20.254 6.211,20.111 C6.063,19.967 5.989,19.797 5.989,19.600 L5.989,18.148 C5.989,17.951 6.063,17.781 6.211,17.637 C6.360,17.494 6.535,17.422 6.738,17.422 L8.236,17.422 C8.439,17.422 8.614,17.494 8.763,17.637 C8.911,17.781 8.985,17.951 8.985,18.148 L8.985,19.600 C8.985,19.797 8.911,19.967 8.763,20.111 C8.614,20.254 8.439,20.326 8.236,20.326 ZM8.236,14.518 L6.738,14.518 C6.535,14.518 6.360,14.445 6.211,14.302 C6.063,14.158 5.989,13.988 5.989,13.792 L5.989,12.339 C5.989,12.142 6.063,11.973 6.211,11.829 C6.360,11.685 6.535,11.613 6.738,11.613 L8.236,11.613 C8.439,11.613 8.614,11.685 8.763,11.829 C8.911,11.972 8.985,12.142 8.985,12.339 L8.985,13.792 C8.985,13.988 8.911,14.158 8.763,14.302 C8.614,14.446 8.439,14.518 8.236,14.518 Z" class="cls-1"/>
</svg>
